<svg height="157" viewBox="0 0 157 157" width="157" xmlns="http://www.w3.org/2000/svg" fill="#0A0A0A"><path d="m78.7899056 156.6c-43.0782105 0-78.00000014-35.011333-78.00000014-78.2 0-43.1886674 34.92178964-78.2 78.00000014-78.2 43.0782104 0 77.9999994 35.0113326 77.9999994 78.2 0 43.188667-34.921789 78.2-77.9999994 78.2zm0-2c41.9764664 0 76.0051154-34.115902 76.0051154-76.2 0-42.0840979-34.028649-76.2-76.0051154-76.2-41.9764661 0-76.00511522 34.1159021-76.00511522 76.2 0 42.084098 34.02864912 76.2 76.00511522 76.2z"/><path d="m66.6148767 114.640958.0668321-10.694417c-5.2313971-.534276-9.3148245-5.0074464-9.3148245-10.446541 0-2.238851.691866-4.314043 1.8708727-6.0182343l-10.9499577-9.4490406c-1.4689983.8081989-3.1524326 1.2672749-4.941737 1.2672749-5.7258172 0-10.3675092-4.7010101-10.3675092-10.5 0-5.4617059 4.1174491-9.9494403 9.3801274-10.453v-10.594c-5.2626783-.5035597-9.3801274-4.9912941-9.3801274-10.453 0-5.7989899 4.641692-10.5 10.3675092-10.5 5.7258173 0 10.3675092 4.7010101 10.3675092 10.5 0 5.4617059-4.1174491 9.9494403-9.3801273 10.453v10.594c5.2626782.5035597 9.3801273 4.9912941 9.3801273 10.453 0 3.242294-1.4510299 6.1413507-3.7312865 8.0674204l10.5368792 9.0925829c1.8663016-1.8322106 4.4107223-2.9600033 7.2152293-2.9600033 2.537292 0 4.8616989.9231178 6.6636555 2.4558323l10.0709336-10.0369743c-1.4498155-1.8061498-2.3188144-4.1097242-2.3188144-6.618858 0-5.7989899 4.641692-10.5 10.3675092-10.5 2.4621007 0 4.7237466.8692162 6.5020868 2.3211827l9.6748178-10.0394015c-1.529798-1.8295597-2.452297-4.1965631-2.452297-6.7817812 0-5.7989899 4.641692-10.5 10.367509-10.5s10.367509 4.7010101 10.367509 10.5-4.641692 10.5-10.367509 10.5c-2.462122 0-4.723787-.8692315-6.502134-2.3212211l-9.674861 10.0393307c1.529852 1.8295746 2.452387 4.1966208 2.452387 6.7818904 0 2.562442-.906315 4.9104974-2.412005 6.7333003l9.585933 9.8278017c1.785648-1.4759397 4.066098-2.361102 6.55068-2.361102 5.725817 0 10.367509 4.7010101 10.367509 10.5s-4.641692 10.5-10.367509 10.5-10.367509-4.7010101-10.367509-10.5c0-2.562442.906316-4.9104974 2.412004-6.7333003l-9.5859318-9.8278017c-1.7856477 1.4759397-4.0660977 2.361102-6.5506798 2.361102-2.5372704 0-4.8616594-.9231021-6.6636095-2.4557932l-10.07089 10.0370468c1.4497616 1.8061332 2.3187249 4.1096643 2.3187249 6.6187464 0 5.4842898-4.1515705 9.986537-9.4454688 10.459042l-.0668321 10.694417c5.2313971.534276 9.3148245 5.007446 9.3148245 10.446541 0 5.79899-4.641692 10.5-10.3675092 10.5-5.7258173 0-10.3675093-4.70101-10.3675093-10.5 0-5.48429 4.1515705-9.986537 9.4454688-10.459042zm-23.2688144-68.840958c4.6351855 0 8.3927456-3.8055796 8.3927456-8.5s-3.7575601-8.5-8.3927456-8.5c-4.6351854 0-8.3927455 3.8055796-8.3927455 8.5s3.7575601 8.5 8.3927455 8.5zm0 31.5c4.6351855 0 8.3927456-3.8055796 8.3927456-8.5s-3.7575601-8.5-8.3927456-8.5c-4.6351854 0-8.3927455 3.8055796-8.3927455 8.5s3.7575601 8.5 8.3927455 8.5zm24.3883312 24.7c4.6351855 0 8.3927456-3.8055796 8.3927456-8.5s-3.7575601-8.5-8.3927456-8.5c-4.6351854 0-8.3927455 3.8055796-8.3927455 8.5s3.7575601 8.5 8.3927455 8.5zm24.7832839-24.7c4.6351855 0 8.3927456-3.8055796 8.3927456-8.5s-3.7575601-8.5-8.3927456-8.5c-4.6351854 0-8.3927455 3.8055796-8.3927455 8.5s3.7575601 8.5 8.3927455 8.5zm24.0921166-25c4.635185 0 8.392745-3.8055796 8.392745-8.5s-3.75756-8.5-8.392745-8.5-8.392746 3.8055796-8.392746 8.5 3.757561 8.5 8.392746 8.5zm0 49.7c4.635185 0 8.392745-3.8055796 8.392745-8.5s-3.75756-8.5-8.392745-8.5-8.392746 3.8055796-8.392746 8.5 3.757561 8.5 8.392746 8.5zm-49.0728768 31.6c4.6351854 0 8.3927455-3.80558 8.3927455-8.5s-3.7575601-8.5-8.3927455-8.5c-4.6351855 0-8.3927456 3.80558-8.3927456 8.5s3.7575601 8.5 8.3927456 8.5z"/></svg>
