<svg height="157" viewBox="0 0 157 157" width="157" xmlns="http://www.w3.org/2000/svg"><g fill="#0A0A0A"><path d="m78.2 156.4c-43.1886674 0-78.2-35.011333-78.2-78.2 0-43.1886674 35.0113326-78.2 78.2-78.2 43.188667 0 78.2 35.0113326 78.2 78.2 0 43.188667-35.011333 78.2-78.2 78.2zm0-2c42.084098 0 76.2-34.115902 76.2-76.2 0-42.0840979-34.115902-76.2-76.2-76.2-42.0840979 0-76.2 34.1159021-76.2 76.2 0 42.084098 34.1159021 76.2 76.2 76.2z"/><path d="m83.5982853 46.7291332c-.0009375.0657784-.0025211.1757237-.0062615.4354155-.0063699.4377835-.0136659.9255756-.0217725 1.4508816-.0231628 1.5009512-.0481792 3.0019368-.0741264 4.403085-.0333857 1.8028272-.0658514 3.305526-.0965105 4.4092518-.0153353.5520718-.4753097.9871826-1.0273815.9718473s-.9871826-.4753097-.9718473-1.0273815c.030452-1.0962742.0628011-2.5935754.0960821-4.3907482.0259047-1.3988518.0508883-2.8978662.0740217-4.396915.0080972-.524694.0153845-1.0119019.0217461-1.4491184.0046495-.3228081.005961-.413864.0068433-.4764402-.0188021-.1218905-.0635028-.3294033-.1446329-.5953761-.1611904-.5284386-.4036672-1.0572976-.7405342-1.5464469-.9569101-1.389486-2.4795697-2.2171881-4.8139117-2.2171881-2.4069039 0-3.9725621.6102053-4.9163023 1.5927293-.3114244.3242226-.5307068.6671334-.6744496 1.0050032-.0577997.1358589-.0922208.2412409-.1092708.3047563-.0000497.1266863-.0001866.3107586-.0004643.5459589-.0006085.5153778-.0017036 1.0896134-.0034072 1.7080056-.0048677 1.7669727-.0136298 3.5340065-.0272632 5.1836461-.0166004 2.0086439-.0393401 3.702919-.0691129 4.9831501-.0128404.5521355-.4708438.9893206-1.0229792.9764802-.5521355-.0128404-.9893206-.4708438-.9764802-1.0229792.0294957-1.2683141.0521157-2.9536749.0686406-4.9531794.0135995-1.6455383.0223442-3.4090523.0272025-5.1726274.0005835-.2118264.0010956-.4184592.001541-.6193035-.044468-.0930046-.0751969-.1945234-.0892548-.302301-.0111699-.0856359-.0522783-.2774752-.1372544-.5380686-.1457019-.4468191-.3617046-.8943922-.6586835-1.3083627-.8459881-1.1792563-2.1768075-1.8829079-4.2124617-1.8829079-3.8199399 0-5.719453 1.0593438-6.0052186 4.2020289-.3482037 3.3949861-.4333249 19.6956948-.2008977 21.7875396.0609897.5489068-.3345453 1.0433256-.8834522 1.1043152-.5489068.0609897-1.0433256-.3345453-1.1043152-.8834522-.0724539-.6520846-.1165369-2.5079165-.1337194-4.8981643-4.3333605.3436318-7.1193729 1.9523226-8.7675782 5.4135298-.6117614 1.299993-.8048187 2.593477-.8054792 4.5378634.225183 6.1925338.7974418 11.4620833 1.8759738 16.3155139 1.191704 5.2633593 3.170556 10.1494137 5.9779685 14.6993757.3847385.629572.4416314.722269.6066521.985875 1.1535772 1.842738 2.039217 2.92041 3.0751182 3.590756 3.0866842 1.9549 4.0351977 4.467179 3.6572258 8.368854-.036548.292383-.0440314.626643-.0302101 1.096566.0033654.114426.0069815.212623.0149318.41403.0174414.441848.0230004.625914.0230004.865369 0 .552285-.4477153 1-1 1s-1-.447715-1-1c0-.203755-.0050759-.371823-.021444-.786483-.0082083-.207943-.0119997-.310899-.0156238-.434118-.0165812-.563764-.0070712-.988544.0417178-1.375723.3079593-3.182247-.3601369-4.951799-2.7479013-6.464106-1.3563945-.877667-2.3935963-2.139764-3.6920395-4.213913-.1705417-.272425-.2285304-.366908-.6157452-1.00055-2.9220787-4.735782-4.9842856-9.8276511-6.2251511-15.3081765-1.1090898-4.9909043-1.6938935-10.3759721-1.9238129-16.7169305 0-2.249274.2320793-3.8042053.9971395-5.4299336 2.0079047-4.2166 5.4907092-6.1938844 10.5672318-6.5629381-.0065001-5.6984791.1117481-13.0751998.3397355-15.297664.4007974-4.4087713 3.2710055-6.0094643 7.9958932-6.0094643 2.6200105 0 4.5209196.9693635 5.742021 2.5872865.1858987-.2892314.4166962-.5858176.6992813-.8800158 1.3375098-1.392476 3.4281016-2.2072707 6.3586977-2.2072707 3.003158 0 5.1367484 1.1597979 6.4610883 3.0828119.2260098.3281787.4159192.6557946.5740619.9753031.1714866-.1943588.3528266-.3833699.5490928-.5702323 1.4717808-1.4012622 3.3299212-2.2197568 5.6490243-2.169269 2.8492986.0965864 4.8883335 1.2345126 6.1775369 3.0624073.2647201.375333.4812273.7500931.6561007 1.1128952 1.1654752-1.4395527 2.9382485-2.293739 5.3996141-2.2917014 3.507656.2338437 6.115649 2.9461566 6.232049 6.4442905.274117 5.1168428.378226 10.4294014.363929 16.8057368-.006635 2.9594794-.029525 5.3123641-.094803 10.6595891-.037 3.0308744-.052581 4.3999532-.067694 6.0881688 0 .4792933.00122.8614774.004929 1.7358126.00968 2.2818419.006692 3.3089477-.024423 4.5924227-.092 3.7950083-.437575 6.8001366-1.215742 9.6348821-1.386948 5.0854766-2.431798 7.4981296-4.792091 9.6768226-2.819648 2.563316-3.7872388 5.659607-3.372673 10.06006v1.2c0 .552285-.4477153 1-1 1s-1-.447715-1-1v-.6c0-.3 0-.3.0045045-.505191-.4658511-4.891436.6964387-8.610764 4.0172155-11.629612 1.986081-1.833306 2.923232-3.997273 4.213954-8.729914.72878-2.6548417 1.057026-5.5092729 1.14542-9.1555183.030502-1.2581992.033453-2.2725696.023853-4.5354676-.003721-.8771779-.004947-1.2612218-.004907-1.7532253.015179-1.7000504.030776-3.070604.067803-6.1036543.065196-5.3405655.088044-7.6890509.09466-10.6396596.014219-6.342074-.089197-11.6192873-.361948-16.7144431-.083137-2.4941172-1.887058-4.3701953-4.300555-4.5333148-1.9410456 0-3.1916727.6780508-3.9764924 1.8173052-.2764287.4012674-.4754082.8359314-.6072872 1.2701673-.0769998.253536-.1131328.4401243-.1168144.4469898-.0035922.1041725-.0096607.2898359-.017456.544078v5.8214597c0 .1629359-.0396844.3166031-.1099151.4518632.0008351.738755.0096781 1.3828645.02741 1.914822.0183993.5519782-.4141519 1.0143604-.9661301 1.0327597s-1.0143604-.4141519-1.0327597-.9661301c-.0304951-.9148531-.0356216-2.1272669-.0200243-3.5679909.0104928-.9692314.0299465-2.0026493.0557694-3.0562263.0140503-.5732506.0291038-1.116382.0441605-1.612248.0090434-.2978297.0160878-.5139915.0256556-.7072811.0035299-.0317696.007503-.0640994.0119337-.0969652v-.8262624c-.0189905-.1213569-.0652577-.3313419-.1500041-.6016399-.166149-.5299312-.4156328-1.0604823-.7621295-1.551762-.9403971-1.3333403-2.4147773-2.1561491-4.6272581-2.2312209-1.7531194-.0381113-3.1239611.5657324-4.2402213 1.6285084-.3757852.3577799-.6878515.7326262-.9945911 1.1644121-.0549161.0773032-.1765875.2541852-.2455606.3544946z"/></g></svg>
