<svg height="157" viewBox="0 0 157 157" width="157" xmlns="http://www.w3.org/2000/svg"><g fill="#0A0A0A"><path d="m79 156.6c-43.1886674 0-78.2-35.011333-78.2-78.2 0-43.1886674 35.0113326-78.2 78.2-78.2 43.188667 0 78.2 35.0113326 78.2 78.2 0 43.188667-35.011333 78.2-78.2 78.2zm0-2c42.084098 0 76.2-34.115902 76.2-76.2 0-42.0840979-34.115902-76.2-76.2-76.2-42.0840979 0-76.2 34.1159021-76.2 76.2 0 42.084098 34.1159021 76.2 76.2 76.2z"/><g stroke-linecap="round" stroke-linejoin="round" transform="translate(38 18)"><path d="m33.0632888 20.9940599c-.3132594-1.3337358-2.5807995-2.7854938-4.850578-2.7566407-2.9557538.0375732-4.9127108 2.378735-4.9127108 7.4625808v47.8940347c.0035721.5323647-.4131849.9778738-.9500624 1.0047176-.0020637.000124-.0041302.0002193-.0061983.0003083-2.7502029.1360498-5.1217118-.7189377-6.13236-2.7404177-.2257063-.437306-.4010118-.787917-.7910388-1.5763586-1.8755467-3.7914279-2.8567239-5.3323371-4.6535783-6.808327-1.96720034-1.6095276-4.6254705-1.9509568-6.67062326-.8057142-1.72420931.9852625-2.39223034 3.3109654-1.3278958 5.135618.04278831.0748795.66980486 1.1734048.85271543 1.4929813 2.2705439 3.9670346 3.67270362 6.19073 5.47447315 8.4971144 3.11534698 4.0888929 5.95385968 8.585298 8.58835618 13.5381555 1.5800798 2.9845952 3.8885443 5.6699518 6.9621543 8.3045014 1.550361 1.3118443 2.1700851 2.7203083 2.0529259 4.7109513-.02981.62601-.0615476 1.471303-.0942283 2.480371-.0261805.808363-.0514729 1.674889-.0749191 2.541474-.0082074.303352-.0155972.585021-.0220504.837765-.0065686.259846-.0065686.259846-.0079676.317208-.0134664.552121-.4719651.988786-1.0240857.97532-.5521205-.013467-.988786-.471965-.9753197-1.024086.0014245-.058402.0014245-.058402.0080246-.319491.0064782-.253722.0138944-.5364.0221304-.840808.023535-.869868.0489268-1.739796.0752356-2.552122.0329812-1.018345.0650551-1.872595.0960377-2.521918.0803603-1.366124-.2725386-2.168167-1.352517-3.082021-3.2548741-2.7898925-5.7224513-5.6603395-7.432081-8.889644-2.5847205-4.8592745-5.3657882-9.2646826-8.40515197-13.253969-1.86855926-2.3917558-3.31189366-4.6807504-5.62681175-8.7253144-.18361425-.320806-.81113937-1.4202223-.84894278-1.4864586-1.62821524-2.7912261-.60796891-6.3431948 2.07517553-7.876377 2.79939056-1.5676587 6.34139943-1.1127218 8.92334277.9997797 2.0905329 1.7172235 3.1788001 3.4263143 5.1782534 7.4682198.384973.778225.5568897 1.1220585.7814344 1.5572929.4893007.9786014 1.7137517 1.5481262 3.3055728 1.6450824v-46.8978688c0-6.1119875 2.7567065-9.4099118 6.8872892-9.4624192 1.8876403-.0239954 3.7867828.6891069 5.1155136 1.7850839.6551101-3.7920422 2.7470918-6.0226647 6.8971972-6.0226647 5.3868409 0 7.477317 3.0081745 7.7562233 8.4278304.0383473.7451584.0456027 1.341132.0440682 2.613263-.0002189.1809597-.0002189.1809597-.0002915.3589066 0 .5522847-.4477153 1-1 1s-1-.4477153-1-1c.0000735-.1799786.0000735-.1799786.0002929-.3613192.0014926-1.2373394-.0054716-1.8093926-.0414265-2.5080624-.2307512-4.4839158-1.6530699-6.5306184-5.7588664-6.5306184-3.3627219 0-4.7445915 1.8131354-5.063697 5.4347675-.0406102.4608982-.0627286.8944831-.0706746 1.3980518.0226861.1544223.0343716.3102882.0343716.4671807 0 .0935147-.0128362.1840313-.0368427.2698841.0022729.3322247.0084582.7009935.0177728 1.1239442.0156626.7111975.0190699.9021721.0190699 1.2061717v30.3c0 .5522847-.4477153 1-1 1s-1-.4477153-1-1v-30.3c0-.283023-.0033092-.4685009-.0185851-1.1621366-.015261-.6929631-.0224708-1.2500997-.0181261-1.7438035zm26.0172919 12.0020562c-.108312.5415598-.6351371.8927765-1.1766968.7844646-.5415598-.108312-.8927765-.6351371-.7844646-1.1766968.4223077-2.1115382 3.2647395-4.2038839 5.8805807-4.2038839 4.0627065 0 6 2.7983128 6 7.4 0 3.1237396.0031167 5.620748.0124986 11.2639625.0093682 5.6349403.0125014 8.1493615.0125014 11.2860375 0 8.7853229-.0350306 15.8089632-.125 22.55 0 4.1264299-.6227453 8.22617-1.8433261 12.0911616-.8101192 2.6618203-2.0384125 4.9047905-3.7352866 6.6013702-2.4110536 2.5115142-3.3374839 4.9118112-2.8375174 7.8285832l.6 3.3c.0987957.543376-.2616081 1.063959-.8049845 1.162755-.5433763.098796-1.0639596-.261608-1.1627553-.804985l-.3555556-1.955555c-.1333333-.733333-.1333333-.733333-.2461968-1.354366-.6189645-3.610627.5439927-6.623743 3.3785155-9.5760708 1.4572664-1.4572664 2.5294883-3.4152368 3.2535241-5.7940246 1.1616939-3.6786972 1.7535827-7.5752985 1.7536716-11.5122007.0899218-6.7441371.1249111-13.7594908.1249111-22.5366679 0-3.135199-.0031323-5.6488795-.0124986-11.2827125-.0093838-5.6443246-.0125014-8.1420688-.0125014-11.2672875 0-3.6205351-1.2319373-5.4-4-5.4-1.7030267 0-3.6931928 1.4649833-3.9194193 2.5961161zm-.1128965 8.5802538c-.0062898 1.6829451-.0136638 3.4338729-.0232499 5.5651648.0014684-.3264774-.0248956 5.4287843-.0305543 6.771476-.0093275 2.2132075-.01388 3.693316-.01388 4.6869893 0 .5522847-.4477153 1-1 1s-1-.4477153-1-1c0-.997332.0045588-2.4794976.0138978-4.6954181.0056605-1.3431223.0320268-7.0988862.0305568-6.7720426.0095839-2.1308271.016956-3.8812809.0232436-5.5636441.0400793-10.7239715.0264621-17.0064064-.0676982-18.2688952.001522-1.2139159-.0684573-2.0299149-.3361489-2.9235323-.536933-1.7924078-1.6584008-2.7764677-3.7638511-2.7764677-3.6029274 0-4.8 1.9521491-4.8 5.8v31.8c0 .5522847-.4477153 1-1 1s-1-.4477153-1-1v-31.8c0-4.8106107 1.8331161-7.8 6.8-7.8 3.0610951 0 4.905684 1.6185805 5.6797357 4.2025461.3385006 1.1299941.4220176 2.1038517.4203321 3.4223523.0949761 1.3129662.1081709 7.5003467.0676164 18.3514715zm-51.6676842-15.2763699c0 .5522847-.44771525 1-1 1s-1-.4477153-1-1c0-14.1862534 11.4815853-25.7 25.7-25.7.5522847 0 1 .44771525 1 1s-.4477153 1-1 1c-13.1125909 0-23.7 10.6170657-23.7 23.7z"/><path d="m13.5 26.3c0 .5522847-.4477153 1-1 1s-1-.4477153-1-1c0-11.1522847 8.9477153-20.1 20.1-20.1.5522847 0 1 .44771525 1 1s-.4477153 1-1 1c-10.0477153 0-18.1 8.0522847-18.1 18.1z"/></g></g></svg>
