<svg height="141" viewBox="0 0 108 141" width="108" xmlns="http://www.w3.org/2000/svg"><g fill="#0A0A0A" fill-rule="evenodd"><path d="m56.3719873.41534684c-.093-.024-.185-.047-.277-.067-17.151-3.815-22.339 24.71899996-26.18 36.07099996-5.555 16.419-12.361 31.004-21.00100003 46.053-9.781 17.036-13.937 29.9050002.3 46.7020002 4.64300003 5.477 9.94000003 8.683 15.61100003 10.175 22.212 5.845 50.19-14.574 67.378-27.534 17.2449997-13.0040002 15.8999997-28.1270002 15.3419997-49.2430002-.41-15.478.274-28.568-13.0599997-38.466-6.576-4.88-14.79-7.639-21.762-12.033-4.696-2.95899996-11.217-10.30699996-16.351-11.65799996m-1.661 6.312c1.791.471 5.509 3.64499996 7.969 5.74499996 2.276 1.942 4.425 3.776 6.563 5.123 3.32 2.092 6.792 3.795 10.15 5.442 4.094 2.008 7.96 3.904 11.202 6.31 4.525 3.359 7.189 7.165 8.638 12.339 1.4339997 5.118 1.5629997 11.025 1.7119997 17.866.023 1.053.047 2.117.075 3.193.028 1.042.057 2.069.086 3.083.267 9.295.497 17.323-1.1639997 24.012-1.684 6.778-5.282 11.9480002-11.669 16.7630002-9.066 6.837-19.672 14.6-30.807 20.2-12.462 6.267-22.886 8.364-30.981 6.234-4.711-1.24-8.732-3.884-12.292-8.083-5.67200003-6.692-8.02300003-12.435-7.62300003-18.62.428-6.6080002 4.10000003-13.8130002 8.00500003-20.6130002 9.218-16.057 16.058-31.058 21.522-47.21.606-1.79 1.228-3.925 1.886-6.185 1.828-6.274 4.102-14.082 7.455-19.669 1.517-2.526 3.076-4.29499996 4.636-5.25899996 1.402-.866 2.821-1.075 4.604-.679z"/><path d="m46.7904873 31.9124468c2.499-6.953 9.248-10.86 16.699-8.183 2.017.725 4.262 2.108 5.993 4.405.829 1.187.436 2.407-.762 3.285l-.993.69c-1.181.831-2.021.582-2.998-.449-1.092-1.23-2.376-1.796-2.952-2.003-3.581-1.287-7.157.515-8.557 4.409-1.399 3.893.211 7.56 3.793 8.847.576.207 1.927.588 3.551.335 1.411-.173 2.258.184 2.599 1.562l.326 1.164c.366 1.44-.282 2.725-1.94 3.071-2.583.59-5.054.225-6.989-.47-7.369-2.648-10.219-9.849-7.77-16.663m32.4526 28.9741-1.261-25.96c-.062-1.284.643-2.052 1.991-2.169l2.523-.221c1.349-.117 2.166.519 2.228 1.803l1.261 25.96c.063 1.283-.686 2.055-2.034 2.172l-2.523.221c-1.349.117-2.123-.522-2.185-1.806m-46.249 2.6978 5.666-10.822c.708-1.353 1.756-1.749 2.957-1.121l2.286 1.197c1.201.629 1.471 1.716.763 3.068l-5.414 10.343c-1.645 3.141-1.542 5.585.512 6.661 2.015 1.055 5.144.359 7.337-3.831l4.889-9.338c.709-1.353 1.755-1.75 2.957-1.121l2.247 1.177c1.202.629 1.511 1.736.803 3.089l-9.55 18.24c-.708 1.353-1.794 1.729-2.995 1.1l-2.248-1.177c-1.201-.629-1.472-1.715-.763-3.068l.754-1.44c-2.333 2.004-5.202 2.392-8.186.83-5.309-2.78-4.779-8.507-2.015-13.787m24.8066 24.6289 3.306-20.322c.245-1.507 1.113-2.214 2.451-1.996l2.548.414c1.338.218 1.938 1.163 1.692 2.671l-.268 1.653c1.33-2.729 3.973-3.995 6.736-3.545 2.548.414 4.81 2.029 5.729 5.373 2.673-3.358 5.323-3.576 7.827-3.168 5.742.933 7.298 6.626 6.341 12.508l-1.953 12.009c-.245 1.507-1.157 2.207-2.495 1.989l-2.504-.407c-1.338-.218-1.938-1.164-1.693-2.671l1.898-11.668c.57-3.5-.331-5.593-2.317-5.916-1.857-.302-4.162 1.07-4.992 5.626l-1.756 10.793c-.245 1.507-1.113 2.214-2.451 1.996l-2.547-.414c-1.339-.218-1.938-1.164-1.693-2.671l1.897-11.668c.57-3.5-.287-5.586-2.274-5.909-1.985-.323-4.315 1.195-5.074 5.862l-1.716 10.55c-.245 1.506-1.113 2.214-2.452 1.996l-2.547-.414c-1.338-.218-1.938-1.164-1.693-2.671m-43.5288 12.9770002.142-.259c.567-1.0370002 1.2-1.6450002 2.301-2.1090002l16.637-6.615-8.555-4.684c-1.19-.651-1.44-1.743-.706-3.082l.567-1.037c.734-1.339 1.788-1.716 2.977-1.065l15.193 8.318c1.19.652 1.44 1.743.707 3.082l-.166.303c-.568 1.037-1.201 1.645-2.302 2.109l-16.575 6.5920002 9.668 5.294c1.19.651 1.478 1.763.745 3.103l-.568 1.036c-.772 1.319-1.826 1.696-3.015 1.045l-16.344-8.949c-1.189-.651-1.439-1.743-.706-3.082m20.0025 19.6685 9.407-5 7.67-21.0300002c.596-1.649 1.905-2.063 3.079-1.012l2.216 1.983c.912.817 1.137 1.811.544 3.065l-5.744 13.3030002 12.62-7.148c1.213-.699 2.227-.585 3.106.203l2.119 1.896c1.173 1.05.907 2.332-.666 3.172l-30.315 15.437c-1.212.633-2.16.511-3.04-.276l-1.63-1.458c-1.173-1.051-.907-2.333.634-3.135"/></g></svg>
